HIERARCHY
ROOT Hips
{
  OFFSET -23.7062 93.0159 42.4327
  CHANNELS 6 Xposition Yposition Zposition Zrotation Xrotation Yrotation
  JOINT Spine
  {
    OFFSET 0 8 0
    CHANNELS 6 Xposition Yposition Zposition Zrotation Xrotation Yrotation
    JOINT Spine1
    {
      OFFSET 0 8 0
      CHANNELS 6 Xposition Yposition Zposition Zrotation Xrotation Yrotation
      JOINT Spine2
      {
        OFFSET 0 8 0
        CHANNELS 6 Xposition Yposition Zposition Zrotation Xrotation Yrotation
        JOINT Spine3
        {
          OFFSET 0 8 0
          CHANNELS 6 Xposition Yposition Zposition Zrotation Xrotation Yrotation
          JOINT Neck
          {
            OFFSET 0 17 0
            CHANNELS 6 Xposition Yposition Zposition Zrotation Xrotation Yrotation
            JOINT Head
            {
              OFFSET 0 10.8 0
              CHANNELS 6 Xposition Yposition Zposition Zrotation Xrotation Yrotation
              End Site
              {
                OFFSET 0 20.25 0
              }
            }
          }
          JOINT LeftShoulder
          {
            OFFSET 5 17 0
            CHANNELS 6 Xposition Yposition Zposition Zrotation Xrotation Yrotation
            JOINT LeftShoulder2
            {
              OFFSET 6.45 0 0
              CHANNELS 6 Xposition Yposition Zposition Zrotation Xrotation Yrotation
              JOINT LeftArm
              {
                OFFSET 6.45 0 0
                CHANNELS 6 Xposition Yposition Zposition Zrotation Xrotation Yrotation
                JOINT LeftForeArm
                {
                  OFFSET 0 -32.4 -2
                  CHANNELS 6 Xposition Yposition Zposition Zrotation Xrotation Yrotation
                  JOINT LeftHand
                  {
                    OFFSET 0 -25.65 2
                    CHANNELS 6 Xposition Yposition Zposition Zrotation Xrotation Yrotation
                    JOINT LeftHandThumb1
                    {
                      OFFSET -0.5 -1.5 2.65
                      CHANNELS 6 Xposition Yposition Zposition Zrotation Xrotation Yrotation
                      JOINT LeftHandThumb2
                      {
                        OFFSET 0 -3.8 3.7
                        CHANNELS 6 Xposition Yposition Zposition Zrotation Xrotation Yrotation
                        JOINT LeftHandThumb3
                        {
                          OFFSET 0 -3 2.7
                          CHANNELS 6 Xposition Yposition Zposition Zrotation Xrotation Yrotation
                          End Site
                          {
                            OFFSET 0 -2.3 1.8
                          }
                        }
                      }
                    }
                    JOINT LeftHandIndex
                    {
                      OFFSET 0 -1.9 1.6
                      CHANNELS 6 Xposition Yposition Zposition Zrotation Xrotation Yrotation
                      JOINT LeftHandIndex1
                      {
                        OFFSET 0 -8.3 1.9
                        CHANNELS 6 Xposition Yposition Zposition Zrotation Xrotation Yrotation
                        JOINT LeftHandIndex2
                        {
                          OFFSET 0 -4.5 0
                          CHANNELS 6 Xposition Yposition Zposition Zrotation Xrotation Yrotation
                          JOINT LeftHandIndex3
                          {
                            OFFSET 0 -3.4 0
                            CHANNELS 6 Xposition Yposition Zposition Zrotation Xrotation Yrotation
                            End Site
                            {
                              OFFSET 0 -2.6 0
                            }
                          }
                        }
                      }
                    }
                    JOINT LeftHandMiddle
                    {
                      OFFSET -0.25 -2.2 0.4
                      CHANNELS 6 Xposition Yposition Zposition Zrotation Xrotation Yrotation
                      JOINT LeftHandMiddle1
                      {
                        OFFSET 0 -8.3 1
                        CHANNELS 6 Xposition Yposition Zposition Zrotation Xrotation Yrotation
                        JOINT LeftHandMiddle2
                        {
                          OFFSET 0 -4.65 0
                          CHANNELS 6 Xposition Yposition Zposition Zrotation Xrotation Yrotation
                          JOINT LeftHandMiddle3
                          {
                            OFFSET 0 -3.3 0
                            CHANNELS 6 Xposition Yposition Zposition Zrotation Xrotation Yrotation
                            End Site
                            {
                              OFFSET 0 -2.7 0
                            }
                          }
                        }
                      }
                    }
                    JOINT LeftHandRing
                    {
                      OFFSET -0.5 -2.15 -0.8
                      CHANNELS 6 Xposition Yposition Zposition Zrotation Xrotation Yrotation
                      JOINT LeftHandRing1
                      {
                        OFFSET 0 -7.75 -0.2
                        CHANNELS 6 Xposition Yposition Zposition Zrotation Xrotation Yrotation
                        JOINT LeftHandRing2
                        {
                          OFFSET 0 -3.8 0
                          CHANNELS 6 Xposition Yposition Zposition Zrotation Xrotation Yrotation
                          JOINT LeftHandRing3
                          {
                            OFFSET 0 -3.4 0
                            CHANNELS 6 Xposition Yposition Zposition Zrotation Xrotation Yrotation
                            End Site
                            {
                              OFFSET 0 -2.6 0
                            }
                          }
                        }
                      }
                    }
                    JOINT LeftHandPinky
                    {
                      OFFSET -0.75 -1.75 -1.85
                      CHANNELS 6 Xposition Yposition Zposition Zrotation Xrotation Yrotation
                      JOINT LeftHandPinky1
                      {
                        OFFSET 0 -7.15 -1
                        CHANNELS 6 Xposition Yposition Zposition Zrotation Xrotation Yrotation
                        JOINT LeftHandPinky2
                        {
                          OFFSET 0 -3 0
                          CHANNELS 6 Xposition Yposition Zposition Zrotation Xrotation Yrotation
                          JOINT LeftHandPinky3
                          {
                            OFFSET 0 -2.35 0
                            CHANNELS 6 Xposition Yposition Zposition Zrotation Xrotation Yrotation
                            End Site
                            {
                              OFFSET 0 -2.1 0
                            }
                          }
                        }
                      }
                    }
                  }
                }
              }
            }
          }
          JOINT RightShoulder
          {
            OFFSET -5 17 0
            CHANNELS 6 Xposition Yposition Zposition Zrotation Xrotation Yrotation
            JOINT RightShoulder2
            {
              OFFSET -6.45 0 0
              CHANNELS 6 Xposition Yposition Zposition Zrotation Xrotation Yrotation
              JOINT RightArm
              {
                OFFSET -6.45 0 0
                CHANNELS 6 Xposition Yposition Zposition Zrotation Xrotation Yrotation
                JOINT RightForeArm
                {
                  OFFSET 0 -32.4 -2
                  CHANNELS 6 Xposition Yposition Zposition Zrotation Xrotation Yrotation
                  JOINT RightHand
                  {
                    OFFSET 0 -25.65 2
                    CHANNELS 6 Xposition Yposition Zposition Zrotation Xrotation Yrotation
                    JOINT RightHandThumb1
                    {
                      OFFSET 0.5 -1.5 2.65
                      CHANNELS 6 Xposition Yposition Zposition Zrotation Xrotation Yrotation
                      JOINT RightHandThumb2
                      {
                        OFFSET 0 -3.8 3.7
                        CHANNELS 6 Xposition Yposition Zposition Zrotation Xrotation Yrotation
                        JOINT RightHandThumb3
                        {
                          OFFSET 0 -3 2.7
                          CHANNELS 6 Xposition Yposition Zposition Zrotation Xrotation Yrotation
                          End Site
                          {
                            OFFSET 0 -2.3 1.8
                          }
                        }
                      }
                    }
                    JOINT RightHandIndex
                    {
                      OFFSET 0 -1.9 1.6
                      CHANNELS 6 Xposition Yposition Zposition Zrotation Xrotation Yrotation
                      JOINT RightHandIndex1
                      {
                        OFFSET 0 -8.3 1.9
                        CHANNELS 6 Xposition Yposition Zposition Zrotation Xrotation Yrotation
                        JOINT RightHandIndex2
                        {
                          OFFSET 0 -4.5 0
                          CHANNELS 6 Xposition Yposition Zposition Zrotation Xrotation Yrotation
                          JOINT RightHandIndex3
                          {
                            OFFSET 0 -3.4 0
                            CHANNELS 6 Xposition Yposition Zposition Zrotation Xrotation Yrotation
                            End Site
                            {
                              OFFSET 0 -2.6 0
                            }
                          }
                        }
                      }
                    }
                    JOINT RightHandMiddle
                    {
                      OFFSET 0.25 -2.2 0.4
                      CHANNELS 6 Xposition Yposition Zposition Zrotation Xrotation Yrotation
                      JOINT RightHandMiddle1
                      {
                        OFFSET 0 -8.3 1
                        CHANNELS 6 Xposition Yposition Zposition Zrotation Xrotation Yrotation
                        JOINT RightHandMiddle2
                        {
                          OFFSET 0 -4.65 0
                          CHANNELS 6 Xposition Yposition Zposition Zrotation Xrotation Yrotation
                          JOINT RightHandMiddle3
                          {
                            OFFSET 0 -3.3 0
                            CHANNELS 6 Xposition Yposition Zposition Zrotation Xrotation Yrotation
                            End Site
                            {
                              OFFSET 0 -2.7 0
                            }
                          }
                        }
                      }
                    }
                    JOINT RightHandRing
                    {
                      OFFSET 0.5 -2.15 -0.8
                      CHANNELS 6 Xposition Yposition Zposition Zrotation Xrotation Yrotation
                      JOINT RightHandRing1
                      {
                        OFFSET 0 -7.75 -0.2
                        CHANNELS 6 Xposition Yposition Zposition Zrotation Xrotation Yrotation
                        JOINT RightHandRing2
                        {
                          OFFSET 0 -3.8 0
                          CHANNELS 6 Xposition Yposition Zposition Zrotation Xrotation Yrotation
                          JOINT RightHandRing3
                          {
                            OFFSET 0 -3.4 0
                            CHANNELS 6 Xposition Yposition Zposition Zrotation Xrotation Yrotation
                            End Site
                            {
                              OFFSET 0 -2.6 0
                            }
                          }
                        }
                      }
                    }
                    JOINT RightHandPinky
                    {
                      OFFSET 0.75 -1.75 -1.85
                      CHANNELS 6 Xposition Yposition Zposition Zrotation Xrotation Yrotation
                      JOINT RightHandPinky1
                      {
                        OFFSET 0 -7.15 -1
                        CHANNELS 6 Xposition Yposition Zposition Zrotation Xrotation Yrotation
                        JOINT RightHandPinky2
                        {
                          OFFSET 0 -3 0
                          CHANNELS 6 Xposition Yposition Zposition Zrotation Xrotation Yrotation
                          JOINT RightHandPinky3
                          {
                            OFFSET 0 -2.35 0
                            CHANNELS 6 Xposition Yposition Zposition Zrotation Xrotation Yrotation
                            End Site
                            {
                              OFFSET 0 -2.1 0
                            }
                          }
                        }
                      }
                    }
                  }
                }
              }
            }
          }
        }
      }
    }
  }
  JOINT LeftUpLeg
  {
    OFFSET 8 0 0
    CHANNELS 6 Xposition Yposition Zposition Zrotation Xrotation Yrotation
    JOINT LeftLeg
    {
      OFFSET 0 -45 -1
      CHANNELS 6 Xposition Yposition Zposition Zrotation Xrotation Yrotation
      JOINT LeftFoot
      {
        OFFSET 0 -41 -2
        CHANNELS 6 Xposition Yposition Zposition Zrotation Xrotation Yrotation
        JOINT LeftToeBase
        {
          OFFSET 0 -7.5 12.5
          CHANNELS 6 Xposition Yposition Zposition Zrotation Xrotation Yrotation
          JOINT LeftFootToe
          {
            OFFSET 0 0 4
            CHANNELS 6 Xposition Yposition Zposition Zrotation Xrotation Yrotation
            End Site
            {
              OFFSET 0 0 0
            }
          }
        }
      }
    }
  }
  JOINT RightUpLeg
  {
    OFFSET -8 0 0
    CHANNELS 6 Xposition Yposition Zposition Zrotation Xrotation Yrotation
    JOINT RightLeg
    {
      OFFSET 0 -45 -1
      CHANNELS 6 Xposition Yposition Zposition Zrotation Xrotation Yrotation
      JOINT RightFoot
      {
        OFFSET 0 -41 -2
        CHANNELS 6 Xposition Yposition Zposition Zrotation Xrotation Yrotation
        JOINT RightToeBase
        {
          OFFSET 0 -7.5 12.5
          CHANNELS 6 Xposition Yposition Zposition Zrotation Xrotation Yrotation
          JOINT RightFootToe
          {
            OFFSET 0 0 4
            CHANNELS 6 Xposition Yposition Zposition Zrotation Xrotation Yrotation
            End Site
            {
              OFFSET 0 0 0
            }
          }
        }
      }
    }
  }
}
MOTION
Frames:	3
Frame Time:	0.0111111
-23.7062 93.0159 42.4327 -2.08259 3.36794 28.969 0 8 0 0.908845 -1.915 16.564 -7.10543e-15 8 3.55271e-15 0.347753 0.74507 -6.62924 0 8 3.55271e-15 -1.92726 0.752795 -11.2412 0 8 0 -6.12111 -6.72938 47.022 0 17 0 -2.77795 8.44776 -18.4318 -1.42109e-14 10.8 0 -1.85891 20.7455 -44.697 5 17 0 0.627092 -0.019791 -3.3762 6.45 -2.84217e-14 1.77636e-15 0.629495 -0.0209653 -3.37056 6.45 0 5.32907e-15 4.25269 -25.4911 -57.5553 -3.55271e-15 -32.4 -2 50.0153 -66.0577 61.6684 -3.55271e-15 -25.65 2 12.2111 24.1562 68.4065 -0.5 -1.5 2.65 -38.8971 6.7183 -40.8857 0 -3.8 3.7 0.00349109 0.626911 -0.0330601 0 -3 2.7 0.0408078 1.48608 0.0591013 0 -1.9 1.6 -2.79586 -1.80209 2.88842 0 -8.3 1.9 -58.232 -1.71493 0.0985139 0 -4.5 7.10543e-15 -60.1952 0.00282861 0.019662 0 -3.4 0 -42.2362 -0.0291707 0.0203616 -0.25 -2.2 0.4 -4.56901 -2.39371 5.77904 -1.42109e-14 -8.3 1 -71.6867 -6.19087 -0.745632 0 -4.65 -7.10543e-15 -39.7538 0.0605934 0.00227206 -1.42109e-14 -3.3 0 -27.9368 0.00898087 0.0330044 -0.5 -2.15 -0.8 -6.63815 -2.8288 11.5622 0 -7.75 -0.2 -81.6831 -0.724661 7.24461 -7.10543e-15 -3.8 3.55271e-15 -37.1774 0.00735931 0.038486 0 -3.4 0 -26.3811 -0.0173482 0.0186351 -0.75 -1.75 -1.85 -13.3576 -3.4451 17.3546 0 -7.15 -1 -85.7569 -5.44785 8.77136 0 -3 3.55271e-15 -34.6429 0.0322987 0.0165245 0 -2.35 -3.55271e-15 -24.8656 -0.000926238 0.0296389 -5 17 3.55271e-15 -0.00689273 -0.00294194 3.81957 -6.45 -2.84217e-14 0 -0.00568725 0.00214804 3.82163 -6.45 0 -7.10543e-15 -4.58892 -26.2516 -31.4067 0 -32.4 -2 85.294 -47.5269 48.3173 0 -25.65 2 -36.8732 -28.002 -34.2931 0.5 -1.5 2.65 16.526 -6.90568 9.29952 7.10543e-15 -3.8 3.7 0.083 14.7225 -0.223345 -7.10543e-15 -3 2.7 -0.125481 63.565 0.0823142 0 -1.9 1.6 4.81544e-06 -1.93548e-05 1.16598e-05 -7.10543e-15 -8.3 1.9 23.2064 16.9363 -3.79793 -1.42109e-14 -4.5 0 42.9564 0.0266355 -0.00192145 0 -3.4 0 29.9131 -0.058635 -0.0310308 0.25 -2.2 0.4 4.81544e-06 -1.93548e-05 1.16598e-05 7.10543e-15 -8.3 1 60.9619 20.7709 -15.7602 0 -4.65 1.42109e-14 33.5092 0.00790696 0.0132032 0 -3.3 0 24.1897 0.00101491 0.366617 0.5 -2.15 -0.8 4.81544e-06 -1.93548e-05 1.16598e-05 -1.42109e-14 -7.75 -0.2 80.557 12.8773 -19.8717 0 -3.8 0 39.0142 0.217119 0.0431171 -1.42109e-14 -3.4 0 27.4879 -0.0528914 -0.144282 0.75 -1.75 -1.85 4.81544e-06 -1.93548e-05 1.16598e-05 -2.84217e-14 -7.15 -1 82.9247 11.7288 -22.0795 7.10543e-15 -3 -1.42109e-14 27.4913 0.0169007 0.0333175 0 -2.35 0 20.5822 0.0170036 -0.000742661 8 -2.84217e-14 7.10543e-15 5.98734 -6.92676 0.476781 0 -45 -1 0.0630801 9.04239 -2.23542 0 -41 -2 -5.01191 -4.66444 -18.8548 0 -7.5 12.5 7.1889e-08 -1.43126 -2.59453e-06 1.77636e-15 0 4 6.59961 3.79194 0.015718 -8 -1.42109e-14 3.55271e-15 4.44881 -9.84116 -6.47404 0 -45 -1 0.0119706 6.32217 -0.816676 0 -41 -2 -4.87245 -1.0271 -12.4577 0 -7.5 12.5 9.30052e-10 0.0205955 8.7891e-07 0 3.46945e-18 4 5.47471 2.90904 -0.00252407 
-23.7712 93.014 42.4977 -2.07124 3.39028 28.9847 0 8 0 0.899541 -1.9147 16.5939 -7.10543e-15 8 3.55271e-15 0.347314 0.745121 -6.59546 -7.10543e-15 8 7.10543e-15 -1.93553 0.752795 -11.2412 0 8 -3.55271e-15 -6.14531 -6.74464 47.0194 0 17 3.55271e-15 -2.75272 8.44729 -18.4414 0 10.8 0 -1.79009 20.741 -44.7289 5 17 7.10543e-15 0.627092 -0.019791 -3.3762 6.45 0 -5.32907e-15 0.629566 -0.0208879 -3.37127 6.45 2.84217e-14 1.77636e-15 4.33441 -25.4864 -57.5708 0 -32.4 -2 50.1168 -66.016 61.831 -3.55271e-15 -25.65 2 12.2508 23.8186 68.3855 -0.5 -1.5 2.65 -39.0923 7.05396 -40.8417 0 -3.8 3.7 0.00230244 1.03755 -0.0330635 0 -3 2.7 0.0404385 1.84384 0.059112 1.42109e-14 -1.9 1.6 -2.77885 -1.79084 2.87031 -1.42109e-14 -8.3 1.9 -57.9005 -1.79356 0.0498354 0 -4.5 7.10543e-15 -60.2843 0.00282861 0.019662 1.42109e-14 -3.4 0 -42.3122 -0.0291707 0.0203616 -0.25 -2.2 0.4 -4.54177 -2.37889 5.74281 -1.42109e-14 -8.3 1 -71.4021 -6.2332 -0.784895 -7.10543e-15 -4.65 7.10543e-15 -39.7352 0.0605934 0.00227206 0 -3.3 -7.10543e-15 -27.9255 0.00898087 0.0330044 -0.5 -2.15 -0.8 -6.59981 -2.81186 11.4897 0 -7.75 -0.2 -81.5062 -0.731814 7.19374 0 -3.8 0 -36.9946 0.00735931 0.038486 0 -3.4 3.55271e-15 -26.2715 -0.0173482 0.0186351 -0.75 -1.75 -1.85 -13.2799 -3.42547 17.2457 0 -7.15 -1 -85.6355 -5.55282 8.60968 0 -3 -7.10543e-15 -34.4258 0.0322987 0.0165245 -1.42109e-14 -2.35 0 -24.7361 -0.000926238 0.0296389 -5 17 7.10543e-15 -0.00689273 -0.00294194 3.81957 -6.45 0 0 -0.00570442 0.0021308 3.82625 -6.45 0 0 -4.60739 -26.2754 -31.4139 0 -32.4 -2 85.2919 -47.5548 48.3715 -7.10543e-15 -25.65 2 -36.8538 -28.0041 -34.2939 0.5 -1.5 2.65 16.5169 -6.91517 9.30034 1.42109e-14 -3.8 3.7 0.0831578 14.7617 -0.223385 0 -3 2.7 -0.125834 63.5297 0.0822124 7.10543e-15 -1.9 1.6 4.81544e-06 -1.93548e-05 1.16598e-05 7.10543e-15 -8.3 1.9 23.1969 16.9429 -3.79806 -7.10543e-15 -4.5 0 42.9564 0.0273366 -0.00192145 -7.10543e-15 -3.4 -1.42109e-14 29.9131 -0.058635 -0.0310308 0.25 -2.2 0.4 4.81544e-06 -1.93548e-05 1.16598e-05 0 -8.3 1 60.9523 20.7769 -15.7608 0 -4.65 0 33.5239 0.00790696 0.0132032 0 -3.3 0 24.1984 0.00101491 0.366617 0.5 -2.15 -0.8 4.81544e-06 -1.93548e-05 1.16598e-05 0 -7.75 -0.2 80.557 12.8773 -19.8717 0 -3.8 -1.42109e-14 39.0354 0.217119 0.0431171 0 -3.4 0 27.5008 -0.0528914 -0.144282 0.75 -1.75 -1.85 4.81544e-06 -1.93548e-05 1.16598e-05 0 -7.15 -1 82.9247 11.7288 -22.0795 0 -3 0 27.5074 0.0169007 0.0333175 0 -2.35 2.84217e-14 20.592 0.0170036 -0.000742661 8 1.42109e-14 0 6.01205 -6.95991 0.400514 0 -45 -1 0.0652668 9.117 -2.23108 -3.55271e-15 -41 -2 -5.02189 -4.66175 -19.181 1.77636e-15 -7.5 12.5 6.80211e-08 -1.51664 -2.59463e-06 1.77636e-15 -2.77556e-17 4 6.6423 3.87777 0.0209008 -8 0 -7.10543e-15 4.49101 -9.82135 -6.4211 -7.10543e-15 -45 -1 0.0127913 6.2914 -0.828141 -7.10543e-15 -41 -2 -4.9263 -1.03473 -12.4658 -3.55271e-15 -7.5 12.5 9.30052e-10 0.0205955 8.7891e-07 0 3.46945e-18 4 5.47646 2.91819 -0.00304861 
-23.8364 93.0115 42.5637 -2.06245 3.41185 28.9956 0 8 0 0.890414 -1.91441 16.624 7.10543e-15 8 -3.55271e-15 0.346819 0.745178 -6.55744 0 8 -7.10543e-15 -1.9423 0.752795 -11.2412 0 8 0 -6.16601 -6.7599 47.0177 0 17 0 -2.72578 8.44671 -18.4532 0 10.8 0 -1.72144 20.7299 -44.7659 5 17 0 0.627092 -0.019791 -3.3762 6.45 -2.84217e-14 -3.55271e-15 0.629656 -0.0208118 -3.37194 6.45 2.84217e-14 3.55271e-15 4.42562 -25.4805 -57.5736 0 -32.4 -2 50.2078 -65.9975 61.9811 0 -25.65 2 12.2919 23.4884 68.3804 -0.5 -1.5 2.65 -39.3051 7.38805 -40.7942 0 -3.8 3.7 0.000497829 1.53412 -0.03307 0 -3 2.7 0.0401111 2.16101 0.0591234 0 -1.9 1.6 -2.7478 -1.7703 2.83728 0 -8.3 1.9 -57.5306 -1.86136 0.00606692 0 -4.5 0 -60.2963 0.00282861 0.019662 0 -3.4 -7.10543e-15 -42.3226 -0.0291707 0.0203616 -0.25 -2.2 0.4 -4.49198 -2.35179 5.6767 1.42109e-14 -8.3 1 -71.082 -6.26298 -0.817363 7.10543e-15 -4.65 -7.10543e-15 -39.6521 0.0605934 0.00227206 0 -3.3 7.10543e-15 -27.8751 0.00898087 0.0330044 -0.5 -2.15 -0.8 -6.52976 -2.7807 11.3573 0 -7.75 -0.2 -81.2991 -0.728914 7.1428 0 -3.8 3.55271e-15 -36.7423 0.00735931 0.038486 -1.42109e-14 -3.4 7.10543e-15 -26.1204 -0.0173482 0.0186351 -0.75 -1.75 -1.85 -13.1378 -3.38889 17.0471 1.42109e-14 -7.15 -1 -85.487 -5.67841 8.41373 0 -3 -3.55271e-15 -34.0295 0.0322987 0.0165245 1.42109e-14 -2.35 0 -24.4999 -0.000926238 0.0296389 -5 17 -3.55271e-15 -0.00689273 -0.00294194 3.81957 -6.45 0 -3.55271e-15 -0.00572165 0.00211356 3.83001 -6.45 2.84217e-14 7.10543e-15 -4.62803 -26.293 -31.4192 -7.10543e-15 -32.4 -2 85.2947 -47.583 48.4308 -1.42109e-14 -25.65 2 -36.8381 -28.0203 -34.2997 0.5 -1.5 2.65 16.5143 -6.93184 9.31957 -7.10543e-15 -3.8 3.7 0.0833399 14.8068 -0.223432 1.42109e-14 -3 2.7 -0.126378 63.5022 0.0821334 -7.10543e-15 -1.9 1.6 4.81544e-06 -1.93548e-05 1.16598e-05 0 -8.3 1.9 23.1909 16.9501 -3.79821 0 -4.5 0 42.9564 0.0283102 -0.00192145 0 -3.4 0 29.9131 -0.058635 -0.0310308 0.25 -2.2 0.4 4.81544e-06 -1.93548e-05 1.16598e-05 -7.10543e-15 -8.3 1 60.9419 20.783 -15.7615 0 -4.65 0 33.5521 0.00790696 0.0132032 0 -3.3 0 24.2153 0.00101491 0.366617 0.5 -2.15 -0.8 4.81544e-06 -1.93548e-05 1.16598e-05 -1.42109e-14 -7.75 -0.2 80.557 12.8773 -19.8717 0 -3.8 1.42109e-14 39.0693 0.217119 0.0431171 0 -3.4 0 27.5214 -0.0528914 -0.144282 0.75 -1.75 -1.85 4.81544e-06 -1.93548e-05 1.16598e-05 -1.42109e-14 -7.15 -1 82.9271 11.7288 -22.0795 -7.10543e-15 -3 0 27.5223 0.0169007 0.0333175 0 -2.35 0 20.601 0.0170036 -0.000742661 8 1.42109e-14 -3.55271e-15 6.03749 -6.98828 0.313346 3.55271e-15 -45 -1 0.0671857 9.18455 -2.22683 3.55271e-15 -41 -2 -5.03145 -4.66352 -19.4968 0 -7.5 12.5 6.44203e-08 -1.59613 -2.59472e-06 0 2.77556e-17 4 6.68603 3.95447 0.0274422 -8 1.42109e-14 3.55271e-15 4.53526 -9.80011 -6.36754 0 -45 -1 0.0134863 6.25815 -0.838897 -7.10543e-15 -41 -2 -4.97914 -1.04155 -12.4825 0 -7.5 12.5 9.23877e-10 0.0209981 8.7891e-07 7.10543e-15 0 4 5.477 2.92764 -0.00345919 
